#N canvas 269 376 582 377 10;
#X obj 25 49 nbx 5 14 1 255 0 0 \$0-channel-snd \$0-channel-rcv channel
0 -5 0 10 -228856 -1 -1 232 256;
#X obj 85 49 nbx 5 14 0 255 0 0 \$0-value-snd \$0-value-rcv value 0
-5 0 10 -262144 -1 -1 0 256;
#X obj 195 27 r channels;
#X obj 195 48 list split \$1;
#X obj 232 69 list split 1;
#X obj 232 110 s \$0-channel-rcv;
#X obj 232 154 r \$0-channel-snd;
#X obj 232 197 change;
#X obj 232 90 t f f;
#X msg 259 177 set \$1;
#X obj 232 219 list prepend \$1;
#X obj 232 240 s setChannel;
#X obj 353 48 list split \$1;
#X obj 390 69 list split 1;
#X obj 390 197 change;
#X obj 390 90 t f f;
#X msg 417 177 set \$1;
#X obj 353 27 r values;
#X obj 390 110 s \$0-value-rcv;
#X obj 390 154 r \$0-value-snd;
#X obj 390 240 s setValue;
#X obj 390 219 list prepend 1;
#X obj 471 179 r \$0-channel-snd;
#X connect 2 0 3 0;
#X connect 3 1 4 0;
#X connect 4 0 8 0;
#X connect 6 0 7 0;
#X connect 7 0 10 0;
#X connect 8 0 5 0;
#X connect 8 1 9 0;
#X connect 9 0 7 0;
#X connect 10 0 11 0;
#X connect 12 1 13 0;
#X connect 13 0 15 0;
#X connect 14 0 21 0;
#X connect 15 0 18 0;
#X connect 15 1 16 0;
#X connect 16 0 14 0;
#X connect 17 0 12 0;
#X connect 19 0 14 0;
#X connect 21 0 20 0;
#X connect 22 0 21 1;
#X coords 0 -1 1 1 123 47 1 20 20;
